# Blender v2.80 (sub 75) OBJ File: ''
# www.blender.org
mtllib Ground.mtl
o Cylinder
v -1.913417 -0.099362 -4.519398
v -1.913417 0.000638 -4.519398
v 1.913417 -0.099362 -4.519398
v 1.913417 0.000638 -4.519398
v 4.619398 -0.099362 -1.813417
v 4.619398 0.000638 -1.813417
v 4.619398 -0.099362 2.013417
v 4.619398 0.000638 2.013417
v 1.913417 -0.099362 4.719398
v 1.913417 0.000638 4.719398
v -1.913418 -0.099362 4.719397
v -1.913418 0.000638 4.719397
v -4.619398 -0.099362 2.013417
v -4.619398 0.000638 2.013417
v -4.619398 -0.099362 -1.813416
v -4.619398 0.000638 -1.813416
vt 1.000000 0.966797
vt 1.000000 1.000000
vt 0.875000 1.000000
vt 0.875000 0.966797
vt 0.750000 1.000000
vt 0.750000 0.966797
vt 0.625000 1.000000
vt 0.625000 0.966797
vt 0.500000 1.000000
vt 0.500000 0.966797
vt 0.375000 1.000000
vt 0.375000 0.966797
vt 0.250000 1.000000
vt 0.250000 0.966797
vt 0.681022 0.911776
vt 0.680266 0.035655
vt 0.937097 0.292044
vt 0.937411 0.654945
vt 0.125000 1.000000
vt 0.125000 0.966797
vt 0.000000 1.000000
vt 0.000000 0.966797
vt 0.321687 0.913563
vt 0.320931 0.037442
vt 0.064543 0.294274
vt 0.064856 0.657175
vt 0.318121 0.912090
vt 0.317364 0.035969
vt 0.061290 0.655701
vt 0.060976 0.292800
vt 0.683832 0.037129
vt 0.684589 0.913250
vt 0.940977 0.656418
vt 0.940664 0.293517
vn 0.0000 0.0000 -1.0000
vn 0.7071 0.0000 -0.7071
vn 1.0000 0.0000 0.0000
vn 0.7071 0.0000 0.7071
vn -0.0000 0.0000 1.0000
vn -0.7071 0.0000 0.7071
vn 0.0000 1.0000 0.0000
vn -1.0000 0.0000 0.0000
vn -0.7071 0.0000 -0.7071
vn 0.0000 -1.0000 -0.0000
usemtl None
s off
f 1/1/1 2/2/1 4/3/1 3/4/1
f 3/4/2 4/3/2 6/5/2 5/6/2
f 5/6/3 6/5/3 8/7/3 7/8/3
f 7/8/4 8/7/4 10/9/4 9/10/4
f 9/10/5 10/9/5 12/11/5 11/12/5
f 11/12/6 12/11/6 14/13/6 13/14/6
f 4/15/7 10/16/7 8/17/7 6/18/7
f 13/14/8 14/13/8 16/19/8 15/20/8
f 15/20/9 16/19/9 2/21/9 1/22/9
f 1/23/10 11/24/10 13/25/10 15/26/10
f 10/16/7 4/15/7 2/27/7 12/28/7
f 12/28/7 2/27/7 16/29/7 14/30/7
f 9/31/10 3/32/10 5/33/10 7/34/10
f 11/24/10 1/23/10 3/32/10 9/31/10
