# Blender v2.80 (sub 75) OBJ File: ''
# www.blender.org
o Cylinder
v 0.000000 0.001774 -1.000000
v 0.000000 2.001774 -1.000000
v 0.707107 0.001774 -0.707107
v 0.707107 2.001774 -0.707107
v 1.000000 0.001774 0.000000
v 1.000000 2.001774 0.000000
v 0.707107 0.001774 0.707107
v 0.707107 2.001774 0.707107
v -0.000000 0.001774 1.000000
v -0.000000 2.001774 1.000000
v -0.707107 0.001774 0.707107
v -0.707107 2.001774 0.707107
v -1.000000 0.001774 -0.000000
v -1.000000 2.001774 -0.000000
v -0.707107 0.001774 -0.707107
v -0.707107 2.001774 -0.707107
v 0.530330 2.001774 -0.530330
v -0.000000 2.001774 -0.750000
v 0.750000 2.001774 0.000000
v 0.530330 2.001774 0.530330
v -0.000000 2.001774 0.750000
v -0.530330 2.001774 0.530330
v -0.750000 2.001774 -0.000000
v -0.530330 2.001774 -0.530330
v 0.530330 3.003547 -0.530330
v -0.000000 3.003547 -0.750000
v 0.750000 3.003547 0.000000
v 0.530330 3.003547 0.530330
v -0.000000 3.003547 0.750000
v -0.530330 3.003547 0.530330
v -0.750000 3.003547 -0.000000
v -0.530330 3.003547 -0.530330
v 0.397748 3.003547 -0.397748
v -0.000000 3.003547 -0.562500
v 0.562500 3.003547 0.000000
v 0.397748 3.003547 0.397748
v -0.000000 3.003547 0.562500
v -0.397748 3.003547 0.397748
v -0.562500 3.003547 -0.000000
v -0.397748 3.003547 -0.397748
v 0.397748 5.007095 -0.397748
v -0.000000 5.007095 -0.562500
v 0.562500 5.007095 0.000000
v 0.397748 5.007095 0.397748
v -0.000000 5.007095 0.562500
v -0.397748 5.007095 0.397748
v -0.562500 5.007095 -0.000000
v -0.397748 5.007095 -0.397748
vt 0.585771 0.991182
vt 0.585771 0.402170
vt 0.425090 0.402170
vt 0.425090 0.991182
vt 0.585771 0.402170
vt 0.585771 0.991182
vt 0.425090 0.402170
vt 0.425090 0.991182
vt 0.584635 0.402170
vt 0.584635 0.991182
vt 0.425090 0.402170
vt 0.425090 0.991182
vt 0.584635 0.402170
vt 0.584635 0.991182
vt 0.425090 0.336361
vt 0.584635 0.336361
vt 0.425090 0.402170
vt 0.425090 0.991182
vt 0.314275 0.623657
vt 0.314273 0.464948
vt 0.426496 0.352722
vt 0.426501 0.735880
vt 0.585771 0.336361
vt 0.585771 0.021659
vt 0.425090 0.021659
vt 0.584635 0.336361
vt 0.425090 0.336361
vt 0.425090 0.336361
vt 0.425090 0.336361
vt 0.585771 0.336361
vt 0.425090 0.021659
vt 0.584635 0.021659
vt 0.584635 0.080922
vt 0.425090 0.080922
vt 0.585771 0.021659
vt 0.425090 0.021659
vt 0.425090 0.021659
vt 0.584635 0.021659
vt 0.584635 0.080922
vt 0.425090 0.080922
vt 0.425090 0.661821
vt 0.584635 0.661821
vt 0.425090 0.080922
vt 0.585771 0.080922
vt 0.585771 0.080922
vt 0.425090 0.080922
vt 0.426926 0.735581
vt 0.426921 0.354291
vt 0.584856 0.354288
vt 0.584862 0.735579
vt 0.425090 0.661821
vt 0.585771 0.661821
vt 0.584635 0.661821
vt 0.425090 0.661821
vt 0.425090 0.661821
vt 0.585771 0.661821
vt 0.585210 0.735878
vt 0.585205 0.352720
vt 0.697431 0.464943
vt 0.697433 0.623652
vt 0.315247 0.623905
vt 0.315245 0.465969
vt 0.696535 0.465964
vt 0.696537 0.623900
vn 0.3827 0.0000 -0.9239
vn 0.9239 0.0000 -0.3827
vn 0.9239 0.0000 0.3827
vn 0.3827 0.0000 0.9239
vn -0.3827 0.0000 0.9239
vn -0.9239 0.0000 0.3827
vn 0.0000 1.0000 0.0000
vn -0.9239 0.0000 -0.3827
vn -0.3827 0.0000 -0.9239
vn 0.0000 -1.0000 -0.0000
s off
f 1/1/1 2/2/1 4/3/1 3/4/1
f 3/4/2 4/3/2 6/5/2 5/6/2
f 5/6/3 6/5/3 8/7/3 7/8/3
f 7/8/4 8/7/4 10/9/4 9/10/4
f 9/10/5 10/9/5 12/11/5 11/12/5
f 11/12/6 12/11/6 14/13/6 13/14/6
f 10/9/7 8/7/7 20/15/7 21/16/7
f 13/14/8 14/13/8 16/17/8 15/18/8
f 15/18/9 16/17/9 2/2/9 1/1/9
f 1/19/10 3/20/10 5/21/10 15/22/10
f 20/15/3 19/23/3 27/24/3 28/25/3
f 16/17/7 14/13/7 23/26/7 24/27/7
f 6/5/7 4/3/7 17/28/7 19/23/7
f 12/11/7 10/9/7 21/16/7 22/29/7
f 2/2/7 16/17/7 24/27/7 18/30/7
f 4/3/7 2/2/7 18/30/7 17/28/7
f 8/7/7 6/5/7 19/23/7 20/15/7
f 14/13/7 12/11/7 22/29/7 23/26/7
f 32/31/7 31/32/7 39/33/7 40/34/7
f 17/28/1 18/30/1 26/35/1 25/36/1
f 18/30/9 24/27/9 32/31/9 26/35/9
f 23/26/6 22/29/6 30/37/6 31/32/6
f 21/16/4 20/15/4 28/25/4 29/38/4
f 19/23/2 17/28/2 25/36/2 27/24/2
f 24/27/8 23/26/8 31/32/8 32/31/8
f 22/29/5 21/16/5 29/38/5 30/37/5
f 37/39/4 36/40/4 44/41/4 45/42/4
f 30/37/7 29/38/7 37/39/7 38/43/7
f 28/25/7 27/24/7 35/44/7 36/40/7
f 25/36/7 26/35/7 34/45/7 33/46/7
f 26/35/7 32/31/7 40/34/7 34/45/7
f 31/32/7 30/37/7 38/43/7 39/33/7
f 29/38/7 28/25/7 36/40/7 37/39/7
f 27/24/7 25/36/7 33/46/7 35/44/7
f 41/47/7 47/48/7 46/49/7 43/50/7
f 35/44/2 33/46/2 41/51/2 43/52/2
f 40/34/8 39/33/8 47/53/8 48/54/8
f 38/43/5 37/39/5 45/42/5 46/55/5
f 36/40/3 35/44/3 43/52/3 44/41/3
f 33/46/1 34/45/1 42/56/1 41/51/1
f 34/45/9 40/34/9 48/54/9 42/56/9
f 39/33/6 38/43/6 46/55/6 47/53/6
f 13/57/10 7/58/10 9/59/10 11/60/10
f 15/22/10 5/21/10 7/58/10 13/57/10
f 47/48/7 41/47/7 42/61/7 48/62/7
f 43/50/7 46/49/7 45/63/7 44/64/7
